# File created by Blade
# Date/Time:  Wed Jan 21 15:55:51 2015
# Frame Rate: 120.000 fps
#------------------------------------------------------
:FULLY-SPECIFIED
:DEGREES
594
root 23.819786 15.389167 -12.805547 -178.445992 12.847829 -203.742209
Spine 24.767153 -6.666968 48.606367
Head 0.610212 18.609606 15.724859
LeftShoulder -15.571632 -49.647351 54.610011
LeftArm 18.526650 -8.339468 16.482667
LeftForeArm 11.146302 -0.000000 -2.534944
LeftHand -12.181159 -0.000000 5.621823
LeftHandThumb1 -26.253704 0.000000 33.147579
RightShoulder -8.864404 -2.814616 -4.861058
RightArm 14.596487 52.612294 66.132229
RightForeArm -8.671459 0.000000 52.351236
RightHand -14.787909 -0.000000 -74.888966
RightHandThumb1 -24.326973 -0.000000 -32.862282
LeftUpLeg 2.487356 29.762656 38.099464
LeftLeg 2.783230 -0.000000 -0.000000
LeftFoot -3.377129 17.756778 -26.635670
LeftToeBase 42.887382 -0.000000 -0.000000
RightUpLeg -104.802948 -18.337842 -8.568812
RightLeg 132.951304 -0.000000 -0.000000
RightFoot -65.673653 -35.362909 35.154558
RightToeBase 21.764485 -0.000000 -0.000000
595
root 23.821777 15.389298 -12.797952 -178.572116 12.840515 -203.883453
Spine 24.791806 -6.934360 48.589736
Head 0.680399 18.865119 15.990027
LeftShoulder -15.610378 -49.906130 54.936803
LeftArm 19.510694 -9.054891 16.217036
LeftForeArm 11.714841 -0.000000 -2.454429
LeftHand -12.062875 0.000000 5.537385
LeftHandThumb1 -26.253704 0.000000 33.147579
RightShoulder -8.837693 -2.576579 -5.034692
RightArm 14.435676 52.518338 66.297240
RightForeArm -9.008577 -0.000000 52.883020
RightHand -14.853096 0.000000 -74.833611
RightHandThumb1 -24.326973 -0.000000 -32.862282
LeftUpLeg 2.571874 29.707944 37.993202
LeftLeg 2.758818 -0.000000 -0.000000
LeftFoot -3.392321 17.671838 -26.691558
LeftToeBase 43.133488 -0.000000 -0.000000
RightUpLeg -104.706040 -18.268716 -8.778683
RightLeg 132.955824 -0.000000 -0.000000
RightFoot -65.718611 -35.400085 35.178878
RightToeBase 21.812553 -0.000000 -0.000000
596
root 23.823328 15.387565 -12.789627 -178.677507 12.812252 -204.029348
Spine 24.784020 -7.186178 48.519024
Head 0.743782 19.073882 16.336893
LeftShoulder -15.667704 -50.068352 55.259607
LeftArm 20.569708 -9.826248 15.967231
LeftForeArm 12.163456 -0.000000 -2.447544
LeftHand -11.938090 -0.000000 5.596497
LeftHandThumb1 -26.253704 0.000000 33.147579
RightShoulder -8.778580 -2.436313 -5.092414
RightArm 14.389287 52.470109 66.449957
RightForeArm -9.308874 -0.000000 53.356404
RightHand -14.857940 -0.000000 -74.776718
RightHandThumb1 -24.326973 -0.000000 -32.862282
LeftUpLeg 2.618361 29.649317 37.864713
LeftLeg 2.730613 -0.000000 -0.000000
LeftFoot -3.379465 17.579748 -26.701492
LeftToeBase 43.082597 -0.000000 -0.000000
RightUpLeg -104.640070 -18.227371 -8.980809
RightLeg 132.971706 -0.000000 -0.000000
RightFoot -65.749828 -35.451913 35.179011
RightToeBase 21.786405 -0.000000 -0.000000
597
root 23.819245 15.385019 -12.784539 -178.785048 12.741567 -204.227546
Spine 24.756563 -7.425525 48.402223
Head 0.729593 19.249164 16.645698
LeftShoulder -15.694771 -50.223116 55.587979
LeftArm 21.527632 -10.532369 15.733549
LeftForeArm 12.625030 -0.000000 -2.389421
LeftHand -11.814971 -0.000000 5.724516
LeftHandThumb1 -26.253704 0.000000 33.147579
RightShoulder -8.786675 -2.272027 -5.092604
RightArm 14.273381 52.319047 66.460636
RightForeArm -9.562396 0.000000 53.843300
RightHand -14.876336 -0.000000 -74.787908
RightHandThumb1 -24.326973 -0.000000 -32.862282
LeftUpLeg 2.634728 29.545340 37.655010
LeftLeg 2.681373 -0.000000 -0.000000
LeftFoot -3.412897 17.487260 -26.637828
LeftToeBase 43.271173 -0.000000 -0.000000
RightUpLeg -104.594759 -18.269122 -9.247000
RightLeg 133.007017 -0.000000 -0.000000
RightFoot -65.743073 -35.472623 35.169165
RightToeBase 21.783871 -0.000000 -0.000000
